<svg xmlns="http://www.w3.org/2000/svg" width="24" height="24" viewBox="0 0 24 24" fill="none" stroke="#F472B6" stroke-width="1.8" stroke-linecap="round" stroke-linejoin="round"><path d="M12 15a3 3 0 1 0 0-6 3 3 0 0 0 0 6Z"/><path d="M19.4 15a1.8 1.8 0 0 0 .36 2l.06.06-2.12 2.12-.06-.06a1.8 1.8 0 0 0-2-.36 1.8 1.8 0 0 0-1.1 1.65V21h-3v-.59a1.8 1.8 0 0 0-1.1-1.65 1.8 1.8 0 0 0-2 .36l-.06.06-2.12-2.12.06-.06a1.8 1.8 0 0 0 .36-2 1.8 1.8 0 0 0-1.65-1.1H4v-3h.59a1.8 1.8 0 0 0 1.65-1.1 1.8 1.8 0 0 0-.36-2l-.06-.06L7.94 4.6l.06.06a1.8 1.8 0 0 0 2 .36 1.8 1.8 0 0 0 1.1-1.65V3h3v.59a1.8 1.8 0 0 0 1.1 1.65 1.8 1.8 0 0 0 2-.36l.06-.06 2.12 2.12-.06.06a1.8 1.8 0 0 0-.36 2 1.8 1.8 0 0 0 1.65 1.1H21v3h-.59a1.8 1.8 0 0 0-1.01 1.1Z"/></svg>