<svg xmlns="http://www.w3.org/2000/svg" width="24" height="24" viewBox="0 0 24 24" fill="none" stroke="#F472B6" stroke-width="1.8" stroke-linecap="round" stroke-linejoin="round"><path d="M16.5 13.5c0-2.5 2-3.7 2.1-3.8-1.2-1.7-3-1.9-3.6-2-1.5-.2-3 .9-3.8.9-.8 0-2-.9-3.3-.9-1.7 0-3.3 1-4.1 2.5-1.8 3.1-.5 7.7 1.3 10.2.9 1.2 1.9 2.6 3.3 2.5 1.3-.1 1.8-.8 3.4-.8 1.6 0 2 .8 3.4.8 1.4 0 2.3-1.2 3.1-2.5 1-1.4 1.4-2.8 1.4-2.9-.1-.1-2.7-1-2.7-4Z"/><path d="M14.2 5.8c.7-.8 1.1-1.9 1-3-.9 0-2 .6-2.7 1.4-.6.7-1.2 1.8-1 2.9 1 .1 2-.5 2.7-1.3Z"/></svg>