<svg xmlns="http://www.w3.org/2000/svg" width="24" height="24" viewBox="0 0 24 24" fill="none" stroke="#F472B6" stroke-width="1.8" stroke-linecap="round" stroke-linejoin="round"><path d="M21.5 12.2c0-.7-.1-1.3-.2-1.9H12v3.6h5.3a4.5 4.5 0 0 1-2 3v2.5h3.2c1.9-1.7 3-4.2 3-7.2Z"/><path d="M12 22c2.7 0 5-0.9 6.6-2.5l-3.2-2.5c-.9.6-2 .9-3.4.9-2.6 0-4.8-1.8-5.6-4.1H3.1v2.6A10 10 0 0 0 12 22Z"/><path d="M6.4 13.8A6 6 0 0 1 6 12c0-.6.1-1.2.4-1.8V7.6H3.1a10 10 0 0 0 0 8.8l3.3-2.6Z"/><path d="M12 6.1c1.5 0 2.8.5 3.8 1.5l2.9-2.9A9.7 9.7 0 0 0 12 2 10 10 0 0 0 3.1 7.6l3.3 2.6c.8-2.4 3-4.1 5.6-4.1Z"/></svg>